<svg width="500" height="500" viewBox="0 0 500 500" fill="none" xmlns="http://www.w3.org/2000/svg">
<mask id="mask0_75_165" style="mask-type:alpha" maskUnits="userSpaceOnUse" x="0" y="0" width="500" height="500">
<rect width="500" height="500" fill="#D9D9D9"/>
</mask>
<g mask="url(#mask0_75_165)">
<path d="M359.375 151.673L348.327 140.625L140.625 348.327L151.673 359.375L167.298 343.75H328.125C332.267 343.744 336.238 342.096 339.167 339.167C342.096 336.238 343.744 332.267 343.75 328.125V167.298L359.375 151.673ZM328.125 328.125H182.923L243.805 267.242L262.389 285.826C265.319 288.756 269.294 290.402 273.438 290.402C277.581 290.402 281.556 288.756 284.486 285.826L296.875 273.438L328.125 304.666V328.125ZM328.125 282.564L307.923 262.362C304.993 259.432 301.019 257.785 296.875 257.785C292.731 257.785 288.757 259.432 285.827 262.362L273.438 274.752L254.867 256.18L328.125 182.923V282.564Z" fill="#878787"/>
<path d="M171.875 296.875V273.438L210.938 234.402L221.666 245.13L232.728 234.068L221.986 223.326C219.056 220.396 215.081 218.749 210.938 218.749C206.794 218.749 202.819 220.396 199.889 223.326L171.875 251.341V171.875H296.875V156.25H171.875C167.732 156.254 163.76 157.902 160.831 160.831C157.902 163.76 156.254 167.732 156.25 171.875V296.875H171.875Z" fill="#878787"/>
</g>
</svg>
