<svg width="668" height="667" viewBox="0 0 668 667" fill="none" xmlns="http://www.w3.org/2000/svg">
<path d="M667.347 333.495C667.347 399.425 647.797 463.874 611.168 518.693C574.539 573.511 522.478 616.237 461.566 641.467C400.655 666.698 333.63 673.299 268.967 660.437C204.304 647.575 144.907 615.826 98.2878 569.207C51.6683 522.587 19.9201 463.191 7.05779 398.528C-5.80449 333.864 0.7969 266.839 26.0272 205.928C51.2574 145.017 93.9834 92.9552 148.802 56.3265C203.621 19.6978 268.07 0.147339 334 0.147339C377.776 0.147339 421.123 8.76962 461.566 25.5219C502.01 42.2742 538.758 66.8284 569.712 97.7825C600.666 128.737 625.221 165.485 641.973 205.928C658.725 246.372 667.347 289.719 667.347 333.495ZM404.611 330.8H262.842C235.011 328.885 207.54 337.973 186.342 356.108C165.143 374.244 151.912 399.976 149.495 427.768V491.347C149.517 500.185 153.037 508.654 159.286 514.903C165.536 521.152 174.005 524.672 182.842 524.695H484.568C493.399 524.672 501.861 521.158 508.109 514.918C514.357 508.678 517.882 500.22 517.916 491.389V427.684C515.488 399.899 502.252 374.178 481.055 356.051C459.858 337.925 432.393 328.843 404.568 330.758L404.611 330.8ZM234.632 198.379C234.632 217.974 240.442 237.129 251.328 253.421C262.215 269.714 277.688 282.412 295.791 289.911C313.895 297.41 333.815 299.372 353.034 295.549C372.252 291.726 389.905 282.29 403.761 268.435C417.617 254.579 427.052 236.926 430.875 217.707C434.698 198.489 432.736 178.568 425.237 160.465C417.739 142.362 405.04 126.889 388.748 116.002C372.455 105.116 353.3 99.3052 333.705 99.3052C307.429 99.3052 282.229 109.743 263.65 128.323C245.07 146.903 234.632 172.103 234.632 198.379Z" fill="#00AFA9"/>
<path d="M234.632 198.379C234.632 217.974 240.442 237.129 251.328 253.421C262.215 269.714 277.688 282.412 295.791 289.911C313.895 297.41 333.815 299.372 353.034 295.549C372.252 291.726 389.905 282.29 403.761 268.435C417.617 254.579 427.052 236.926 430.875 217.707C434.698 198.489 432.736 178.568 425.237 160.465C417.739 142.362 405.04 126.889 388.748 116.002C372.455 105.116 353.3 99.3052 333.705 99.3052C307.429 99.3052 282.229 109.743 263.65 128.323C245.07 146.903 234.632 172.103 234.632 198.379Z" fill="white"/>
<path d="M404.611 330.8H262.842C235.011 328.885 207.54 337.973 186.342 356.108C165.143 374.244 151.912 399.976 149.495 427.768V491.347C149.517 500.185 153.037 508.654 159.286 514.903C165.536 521.152 174.005 524.672 182.842 524.695H484.568C493.399 524.672 501.861 521.158 508.109 514.918C514.357 508.678 517.882 500.22 517.916 491.389V427.684C515.488 399.899 502.252 374.178 481.055 356.051C459.858 337.925 432.393 328.843 404.568 330.758L404.611 330.8Z" fill="white"/>
</svg>
